<svg xmlns="http://www.w3.org/2000/svg" viewBox="0 0 24 24" fill="currentColor">
  <path d="M12 .5C5.73.5.5 5.73.5 12c0 5.08 3.29 9.39 7.86 10.91.58.11.79-.25.79-.56 0-.28-.01-1.02-.02-2-3.2.7-3.88-1.54-3.88-1.54-.53-1.36-1.3-1.72-1.3-1.72-1.06-.72.08-.71.08-.71 1.17.08 1.79 1.2 1.79 1.2 1.04 1.78 2.73 1.27 3.4.97.11-.76.41-1.27.74-1.56-2.55-.29-5.24-1.28-5.24-5.7 0-1.26.45-2.29 1.19-3.1-.12-.3-.52-1.52.11-3.17 0 0 .97-.31 3.17 1.18a11.04 11.04 0 0 1 2.88-.39c.98.01 1.97.13 2.88.39 2.19-1.49 3.16-1.18 3.16-1.18.63 1.65.23 2.87.11 3.17.74.81 1.19 1.84 1.19 3.1 0 4.43-2.7 5.4-5.27 5.68.42.36.79 1.08.79 2.18 0 1.57-.01 2.84-.01 3.23 0 .31.2.68.8.56C20.71 21.39 24 17.08 24 12 24 5.73 18.27.5 12 .5z"/>
</svg>